<?xml version="1.0" encoding="UTF-8" standalone="no"?>
<svg
   viewBox="0 0 24 24"
   width="24"
   height="24"
   data-inject-url="https://nurofsun.com/icons/calendar.svg"
   class="mr-2 injectable"
   version="1.1"
   id="svg166"
   sodipodi:docname="cal.svg"
   inkscape:version="1.2 (56b05e47e7, 2022-06-09, custom)"
   xmlns:inkscape="http://www.inkscape.org/namespaces/inkscape"
   xmlns:sodipodi="http://sodipodi.sourceforge.net/DTD/sodipodi-0.dtd"
   xmlns="http://www.w3.org/2000/svg"
   xmlns:svg="http://www.w3.org/2000/svg">
  <defs
     id="defs170" />
  <sodipodi:namedview
     id="namedview168"
     pagecolor="#ffffff"
     bordercolor="#666666"
     borderopacity="1.0"
     inkscape:showpageshadow="2"
     inkscape:pageopacity="0.0"
     inkscape:pagecheckerboard="0"
     inkscape:deskcolor="#d1d1d1"
     showgrid="false"
     inkscape:zoom="23.416667"
     inkscape:cx="5.0604981"
     inkscape:cy="23.167259"
     inkscape:window-width="1360"
     inkscape:window-height="709"
     inkscape:window-x="3"
     inkscape:window-y="27"
     inkscape:window-maximized="1"
     inkscape:current-layer="svg166" />
  <path
     d="M17 3h4a1 1 0 0 1 1 1v16a1 1 0 0 1-1 1H3a1 1 0 0 1-1-1V4a1 1 0 0 1 1-1h4V1h2v2h6V1h2v2zm-2 2H9v2H7V5H4v4h16V5h-3v2h-2V5zm5 6H4v8h16v-8z"
     id="path164"
     style="fill:#ffffff;fill-opacity:1" />
</svg>
